<svg xmlns="http://www.w3.org/2000/svg" xmlns:xlink="http://www.w3.org/1999/xlink" viewBox="0 0 37.7 37.7"><defs><style>.cls-1{fill:#004888;}.cls-2{fill:url(#Degradado_sin_nombre_4);}</style><linearGradient id="Degradado_sin_nombre_4" y1="18.85" x2="37.7" y2="18.85" gradientUnits="userSpaceOnUse"><stop offset="0" stop-color="#dd1f1b"/><stop offset="0.25" stop-color="#e34829"/><stop offset="0.59" stop-color="#ea783a"/><stop offset="0.85" stop-color="#ee9745"/><stop offset="1" stop-color="#f0a249"/></linearGradient></defs><g id="Capa_2" data-name="Capa 2"><g id="Capa_1-2" data-name="Capa 1"><path class="cls-1" d="M36.65,4.88,33,1.27a1.35,1.35,0,0,0-1.93,0L15.86,16.52,12.34,13a1.41,1.41,0,0,0-1-.4,1.39,1.39,0,0,0-1,.4L6.8,16.6a1.37,1.37,0,0,0,0,1.93L11.24,23l0,.05,3.61,3.61a1.35,1.35,0,0,0,1.92,0L36.65,6.8a1.35,1.35,0,0,0,0-1.92Z"/><path class="cls-2" d="M35.48,10l-2.71,2.7a15.17,15.17,0,1,1-7.45-7.62L28,2.37c-.59-.33-1.2-.62-1.82-.89A18.85,18.85,0,1,0,11.51,36.21a18.86,18.86,0,0,0,20.67-4,18.84,18.84,0,0,0,4-20.67A16.51,16.51,0,0,0,35.48,10Z"/></g></g></svg>