<svg xmlns="http://www.w3.org/2000/svg" id="Capa_1" data-name="Capa 1" viewBox="0 0 521.49 245.01"><title>logo-asofintech-fondo-oscuro</title><path d="M231.63,80.94,243,30.07h6.08l11.36,50.87h-7.29L251,70h-9.92l-2.15,10.93Zm18-17.79-3.57-18.43h-.15l-3.57,18.43Z" style="fill:#fff"></path><path d="M287.2,44.72h-7.28V43.08a7.86,7.86,0,0,0-1.18-4.33,4.38,4.38,0,0,0-4-1.82,4.6,4.6,0,0,0-2.43.57,5,5,0,0,0-1.5,1.43,6,6,0,0,0-.78,2.11,14,14,0,0,0-.22,2.46A24.36,24.36,0,0,0,270,46a4.63,4.63,0,0,0,.54,1.79,3.93,3.93,0,0,0,1.25,1.36A11.07,11.07,0,0,0,274,50.29l5.57,2.21a13.92,13.92,0,0,1,3.93,2.18,9.6,9.6,0,0,1,2.36,2.9,13.61,13.61,0,0,1,1.07,3.89,38.67,38.67,0,0,1,.28,5,26.09,26.09,0,0,1-.64,6,12.69,12.69,0,0,1-2.07,4.68,10.29,10.29,0,0,1-3.93,3.14,13.91,13.91,0,0,1-5.93,1.14,13.18,13.18,0,0,1-4.93-.92,11.78,11.78,0,0,1-3.93-2.58A12.58,12.58,0,0,1,263.16,74a11.62,11.62,0,0,1-1-4.75V66.58h7.29v2.28a5.92,5.92,0,0,0,1.18,3.61,4.58,4.58,0,0,0,4,1.61,6.33,6.33,0,0,0,2.89-.54A3.83,3.83,0,0,0,279.13,72a5.67,5.67,0,0,0,.68-2.4c.07-.93.11-2,.11-3.1a29.37,29.37,0,0,0-.15-3.29,5.43,5.43,0,0,0-.57-2.07,4.07,4.07,0,0,0-1.32-1.29,17.11,17.11,0,0,0-2.18-1.07l-5.21-2.14c-3.15-1.29-5.25-3-6.33-5.11a17.59,17.59,0,0,1-1.6-8,18.55,18.55,0,0,1,.78-5.42,12.39,12.39,0,0,1,2.36-4.43,10.79,10.79,0,0,1,3.82-3,12.76,12.76,0,0,1,5.54-1.1,12.17,12.17,0,0,1,5,1,12.75,12.75,0,0,1,3.9,2.65,11,11,0,0,1,3.28,7.86Z" style="fill:#fff"></path><path d="M291.85,42.07a12.88,12.88,0,0,1,1.07-5.42,11.35,11.35,0,0,1,2.85-3.93,12.34,12.34,0,0,1,3.9-2.29,12.77,12.77,0,0,1,8.79,0,13.09,13.09,0,0,1,4,2.29,12,12,0,0,1,2.79,3.93,13,13,0,0,1,1.07,5.42V68.93a13,13,0,0,1-1.07,5.51,11.49,11.49,0,0,1-2.79,3.78,12.15,12.15,0,0,1-4,2.36,12.77,12.77,0,0,1-8.79,0,11.49,11.49,0,0,1-3.9-2.36,10.85,10.85,0,0,1-2.85-3.78,12.83,12.83,0,0,1-1.07-5.51Zm7.28,26.86a4.83,4.83,0,0,0,1.47,3.9,5.43,5.43,0,0,0,6.93,0,4.86,4.86,0,0,0,1.46-3.9V42.07a4.87,4.87,0,0,0-1.46-3.89,5.43,5.43,0,0,0-6.93,0,4.84,4.84,0,0,0-1.47,3.89Z" style="fill:#fff"></path><path d="M345.49,66.43v3.15A11.21,11.21,0,0,1,344.6,74a12.07,12.07,0,0,1-2.46,3.75,11.85,11.85,0,0,1-3.68,2.61,10.84,10.84,0,0,1-4.54,1,16.33,16.33,0,0,1-4.21-.57,9.84,9.84,0,0,1-3.86-2A11.1,11.1,0,0,1,323,75.11a13,13,0,0,1-1.11-5.75v-28a12.39,12.39,0,0,1,.86-4.64A10.91,10.91,0,0,1,325.21,33,11.16,11.16,0,0,1,329,30.54a12.5,12.5,0,0,1,4.82-.89A11,11,0,0,1,342.14,33a11.87,11.87,0,0,1,2.46,3.9,13,13,0,0,1,.89,4.89v2.86h-7.28V42.22A5.92,5.92,0,0,0,337,38.5a3.94,3.94,0,0,0-3.28-1.57c-1.81,0-3,.56-3.61,1.68a9.08,9.08,0,0,0-.89,4.25v26a6.77,6.77,0,0,0,1,3.72,3.81,3.81,0,0,0,3.47,1.5,5.19,5.19,0,0,0,1.53-.25,4.69,4.69,0,0,0,1.54-.82,4.44,4.44,0,0,0,1.07-1.57,6.5,6.5,0,0,0,.43-2.51v-2.5Z" style="fill:#fff"></path><path d="M351.28,80.94V30.07h7.29V80.94Z" style="fill:#fff"></path><path d="M362,80.94l11.36-50.87h6.08l11.35,50.87H383.5L381.35,70h-9.93l-2.14,10.93Zm18-17.79-3.57-18.43h-.15l-3.57,18.43Z" style="fill:#fff"></path><path d="M417.14,66.43v3.15a11.21,11.21,0,0,1-.89,4.46,12.07,12.07,0,0,1-2.46,3.75,11.85,11.85,0,0,1-3.68,2.61,10.84,10.84,0,0,1-4.54,1,16.33,16.33,0,0,1-4.21-.57,9.84,9.84,0,0,1-3.86-2,11,11,0,0,1-2.82-3.68,13,13,0,0,1-1.11-5.75v-28a12.39,12.39,0,0,1,.86-4.64A10.91,10.91,0,0,1,396.86,33a11.16,11.16,0,0,1,3.75-2.46,12.5,12.5,0,0,1,4.82-.89A11.05,11.05,0,0,1,413.79,33a11.87,11.87,0,0,1,2.46,3.9,13,13,0,0,1,.89,4.89v2.86h-7.28V42.22a5.92,5.92,0,0,0-1.22-3.72,3.94,3.94,0,0,0-3.28-1.57c-1.81,0-3,.56-3.61,1.68a9,9,0,0,0-.89,4.25v26a6.77,6.77,0,0,0,1,3.72,3.81,3.81,0,0,0,3.47,1.5,5.19,5.19,0,0,0,1.53-.25,4.69,4.69,0,0,0,1.54-.82,4.44,4.44,0,0,0,1.07-1.57,6.5,6.5,0,0,0,.43-2.51v-2.5Z" style="fill:#fff"></path><path d="M422.93,80.94V30.07h7.29V80.94Z" style="fill:#fff"></path><path d="M436.5,42.07a13,13,0,0,1,1.07-5.42,11.51,11.51,0,0,1,2.86-3.93,12.18,12.18,0,0,1,3.89-2.29,12.77,12.77,0,0,1,8.79,0,13.14,13.14,0,0,1,4,2.29,11.87,11.87,0,0,1,2.78,3.93,12.88,12.88,0,0,1,1.07,5.42V68.93a12.83,12.83,0,0,1-1.07,5.51,11.33,11.33,0,0,1-2.78,3.78,12.19,12.19,0,0,1-4,2.36,12.77,12.77,0,0,1-8.79,0,11.36,11.36,0,0,1-3.89-2.36,11,11,0,0,1-2.86-3.78,13,13,0,0,1-1.07-5.51Zm7.29,26.86a4.86,4.86,0,0,0,1.46,3.9,5.43,5.43,0,0,0,6.93,0,4.83,4.83,0,0,0,1.47-3.9V42.07a4.84,4.84,0,0,0-1.47-3.89,5.43,5.43,0,0,0-6.93,0,4.87,4.87,0,0,0-1.46,3.89Z" style="fill:#fff"></path><path d="M466.72,80.94V30.07h7l11,30.65h.14V30.07h7.29V80.94h-6.86L474.15,50.36H474V80.94Z" style="fill:#fff"></path><path d="M231.63,148.17V97.31h21.71v6.86H238.91V119.6h12.58v6.85H238.91v21.72Z" style="fill:#fff"></path><path d="M257.91,148.17V97.31h7.29v50.86Z" style="fill:#fff"></path><path d="M271.63,148.17V97.31h7l11,30.64h.14V97.31h7.29v50.86H290.2L279.06,117.6h-.15v30.57Z" style="fill:#fff"></path><path d="M308.06,148.17v-44h-8.43V97.31h24.15v6.86h-8.43v44Z" style="fill:#fff"></path><path d="M326.63,148.17V97.31h21.72v6.86H333.92V119.1h12.57V126H333.92v14.93h14.43v7.29Z" style="fill:#fff"></path><path d="M375.85,133.67v3.14a11.29,11.29,0,0,1-.89,4.47,12.53,12.53,0,0,1-2.47,3.75,11.83,11.83,0,0,1-3.67,2.6,10.7,10.7,0,0,1-4.54,1,16.27,16.27,0,0,1-4.21-.57,10,10,0,0,1-3.86-2,11.07,11.07,0,0,1-2.82-3.68,13,13,0,0,1-1.11-5.75v-28a12.24,12.24,0,0,1,.86-4.64,10.77,10.77,0,0,1,2.43-3.71,11.24,11.24,0,0,1,3.74-2.47,12.78,12.78,0,0,1,4.83-.89,11,11,0,0,1,8.35,3.36,11.91,11.91,0,0,1,2.47,3.89,13,13,0,0,1,.89,4.89v2.86h-7.28v-2.43a5.87,5.87,0,0,0-1.22-3.71,3.92,3.92,0,0,0-3.28-1.57c-1.81,0-3,.56-3.61,1.67a9,9,0,0,0-.89,4.25v26a6.76,6.76,0,0,0,1,3.71,3.8,3.8,0,0,0,3.46,1.5,5.2,5.2,0,0,0,1.54-.25,4.51,4.51,0,0,0,1.54-.82,4.35,4.35,0,0,0,1.07-1.57,6.48,6.48,0,0,0,.43-2.5v-2.5Z" style="fill:#fff"></path><path d="M381.42,148.17V97.31h7.29V119.1h9V97.31H405v50.86h-7.29V125.52h-9v22.65Z" style="fill:#fff"></path><path d="M231.63,215.4V164.54h21.71v6.86H238.91v14.93h12.58v6.86H238.91v14.93h14.43v7.28Z" style="fill:#fff"></path><path d="M280.84,200.9v3.15a11.21,11.21,0,0,1-.89,4.46,12.19,12.19,0,0,1-2.46,3.75,11.85,11.85,0,0,1-3.68,2.61,10.84,10.84,0,0,1-4.54,1,16.33,16.33,0,0,1-4.21-.57,10,10,0,0,1-3.86-2,11.1,11.1,0,0,1-2.82-3.68,13,13,0,0,1-1.11-5.75v-28a12.45,12.45,0,0,1,.86-4.65,10.95,10.95,0,0,1,6.18-6.17,12.5,12.5,0,0,1,4.82-.9,11,11,0,0,1,8.36,3.36,11.83,11.83,0,0,1,2.46,3.89,13.1,13.1,0,0,1,.89,4.9v2.85h-7.28v-2.42a5.92,5.92,0,0,0-1.22-3.72,3.92,3.92,0,0,0-3.28-1.57c-1.81,0-3,.56-3.61,1.68a9,9,0,0,0-.89,4.25v26a6.77,6.77,0,0,0,1,3.72,3.81,3.81,0,0,0,3.47,1.5,5.54,5.54,0,0,0,1.53-.25,4.54,4.54,0,0,0,1.54-.83,4.35,4.35,0,0,0,1.07-1.57,6.27,6.27,0,0,0,.43-2.5v-2.5Z" style="fill:#fff"></path><path d="M310,164.54V204a11.77,11.77,0,0,1-.89,4.61,11.63,11.63,0,0,1-2.54,3.75,12.11,12.11,0,0,1-3.79,2.57,11.32,11.32,0,0,1-4.57.93,11.06,11.06,0,0,1-4.53-.93,12.45,12.45,0,0,1-6.33-6.32,11.43,11.43,0,0,1-.92-4.61V164.54h7.28v38.72a5.45,5.45,0,0,0,1.29,4,4.65,4.65,0,0,0,6.43,0,5.49,5.49,0,0,0,1.28-4V164.54Z" style="fill:#fff"></path><path d="M312.35,215.4l11.36-50.86h6.07l11.36,50.86h-7.29l-2.14-10.93h-9.93l-2.15,10.93Zm18-17.78-3.57-18.43h-.14l-3.58,18.43Z" style="fill:#fff"></path><path d="M344.35,215.4V164.54h10.79q6.28,0,9.54,3.43t3.24,9.72v23.78q0,7.16-3.46,10.54t-10,3.39Zm7.29-44v37.15H355c2,0,3.5-.51,4.35-1.54a7.41,7.41,0,0,0,1.29-4.82v-24.5a7.8,7.8,0,0,0-1.21-4.65q-1.21-1.64-4.43-1.64Z" style="fill:#fff"></path><path d="M374,176.54a13.12,13.12,0,0,1,1.07-5.43,11.47,11.47,0,0,1,2.86-3.93,12,12,0,0,1,3.89-2.28,12.62,12.62,0,0,1,8.79,0,12.86,12.86,0,0,1,4,2.28,12.14,12.14,0,0,1,2.79,3.93,13.12,13.12,0,0,1,1.07,5.43V203.4a12.91,12.91,0,0,1-1.07,5.5,11.43,11.43,0,0,1-2.79,3.79,12.33,12.33,0,0,1-4,2.36,12.77,12.77,0,0,1-8.79,0,11.51,11.51,0,0,1-3.89-2.36,10.83,10.83,0,0,1-2.86-3.79,12.91,12.91,0,0,1-1.07-5.5Zm7.28,26.86a4.86,4.86,0,0,0,1.47,3.9,5.43,5.43,0,0,0,6.93,0,4.89,4.89,0,0,0,1.46-3.9V176.54a4.85,4.85,0,0,0-1.46-3.89,5.43,5.43,0,0,0-6.93,0,4.82,4.82,0,0,0-1.47,3.89Z" style="fill:#fff"></path><path d="M404.5,215.4V164.54h11.72q12.86,0,12.85,14.93a18.76,18.76,0,0,1-1.39,7.64,10.83,10.83,0,0,1-4.89,5.08l7.86,23.21h-7.72l-6.78-21.71h-4.36V215.4Zm7.29-44v15.86h4.14a7.25,7.25,0,0,0,3.07-.54,4.26,4.26,0,0,0,1.79-1.53,7,7,0,0,0,.78-2.47,26.23,26.23,0,0,0,0-6.78,6.86,6.86,0,0,0-.85-2.54c-.91-1.33-2.62-2-5.15-2Z" style="fill:#fff"></path><rect x="173.94" y="29.65" width="41.15" height="41.15" transform="translate(389.04 100.45) rotate(-180)" style="fill:#3dbfef"></rect><rect x="173.94" y="77.85" width="41.15" height="41.15" transform="translate(389.04 196.85) rotate(-180)" style="fill:#71ccd4"></rect><rect x="173.94" y="126.05" width="41.15" height="41.15" transform="translate(389.04 293.25) rotate(-180)" style="fill:#2dbfca"></rect><rect x="173.94" y="174.25" width="41.15" height="41.15" transform="translate(389.04 389.65) rotate(-180)" style="fill:#6bcad6"></rect><rect x="125.74" y="77.85" width="41.15" height="41.15" transform="translate(292.64 196.85) rotate(-180)" style="fill:#3dbfef"></rect><rect x="125.74" y="126.05" width="41.15" height="41.15" transform="translate(292.64 293.25) rotate(-180)" style="fill:#71ccd4"></rect><rect x="125.74" y="174.25" width="41.15" height="41.15" transform="translate(292.64 389.65) rotate(-180)" style="fill:#2dbfca"></rect><rect x="77.54" y="126.05" width="41.15" height="41.15" transform="translate(196.24 293.25) rotate(-180)" style="fill:#3dbfef"></rect><rect x="77.54" y="174.25" width="41.15" height="41.15" transform="translate(196.24 389.65) rotate(-180)" style="fill:#71ccd4"></rect><rect x="29.34" y="174.25" width="41.15" height="41.15" transform="translate(99.84 389.65) rotate(-180)" style="fill:#3dbfef"></rect><path d="M448.13,23.69l9.29-8.43,3.07,3.66-9.94,7.52Z" style="fill:#fff"></path></svg>